<?xml version="1.0" encoding="UTF-8" standalone="no"?>
<!-- Created with Inkscape (http://www.inkscape.org/) -->

<svg
   xmlns:dc="http://purl.org/dc/elements/1.1/"
   xmlns:cc="http://creativecommons.org/ns#"
   xmlns:rdf="http://www.w3.org/1999/02/22-rdf-syntax-ns#"
   xmlns:svg="http://www.w3.org/2000/svg"
   xmlns="http://www.w3.org/2000/svg"
   xmlns:sodipodi="http://sodipodi.sourceforge.net/DTD/sodipodi-0.dtd"
   xmlns:inkscape="http://www.inkscape.org/namespaces/inkscape"
   width="97.244896mm"
   height="228.78696mm"
   viewBox="0 0 344.56853 810.66244"
   id="svg18284"
   version="1.1"
   inkscape:version="0.91 r"
   sodipodi:docname="trafficLight.svg">
  <defs
     id="defs18286" />
  <sodipodi:namedview
     id="base"
     pagecolor="#ffffff"
     bordercolor="#666666"
     borderopacity="1.0"
     inkscape:pageopacity="0.0"
     inkscape:pageshadow="2"
     inkscape:zoom="1.5565675"
     inkscape:cx="270.08327"
     inkscape:cy="651.88849"
     inkscape:document-units="px"
     inkscape:current-layer="layer1"
     showgrid="false"
     fit-margin-top="0"
     fit-margin-left="0"
     fit-margin-right="0"
     fit-margin-bottom="0"
     inkscape:window-width="1366"
     inkscape:window-height="716"
     inkscape:window-x="0"
     inkscape:window-y="0"
     inkscape:window-maximized="1" />
  <metadata
     id="metadata18289">
    <rdf:RDF>
      <cc:Work
         rdf:about="">
        <dc:format>image/svg+xml</dc:format>
        <dc:type
           rdf:resource="http://purl.org/dc/dcmitype/StillImage" />
        <dc:title></dc:title>
      </cc:Work>
    </rdf:RDF>
  </metadata>
  <g
     inkscape:label="Layer 1"
     inkscape:groupmode="layer"
     id="layer1"
     transform="translate(-290.57288,102.54046)">
    <text
       sodipodi:linespacing="125%"
       id="text5680"
       y="339.05145"
       x="437.16327"
       style="font-style:normal;font-weight:normal;font-size:20px;line-height:125%;font-family:Sans;letter-spacing:0px;word-spacing:0px;opacity:1;fill:none;fill-opacity:1;stroke:#0000ff"
       xml:space="preserve"><tspan
         y="339.05145"
         x="437.16327"
         id="tspan5682"
         sodipodi:role="line" /></text>
    <circle
       r="37.096817"
       cy="377.67957"
       cx="-638.1308"
       id="circle8802"
       style="opacity:1;fill:none;fill-opacity:1;stroke:#0000ff;stroke-width:0.354;stroke-miterlimit:4;stroke-dasharray:none;stroke-opacity:1"
       transform="matrix(0,-1,1,0,0,0)" />
    <circle
       r="8.8582678"
       cy="377.6795"
       cx="-638.13068"
       id="circle8806"
       style="opacity:1;fill:none;fill-opacity:1;stroke:#ff0000;stroke-width:0.70866144;stroke-miterlimit:4;stroke-dasharray:none;stroke-opacity:1"
       transform="matrix(0,-1,1,0,0,0)" />
    <circle
       r="8.8582678"
       cy="355.44531"
       cx="-638.1308"
       id="circle8832"
       style="opacity:1;fill:none;fill-opacity:1;stroke:#ff0000;stroke-width:0.70866144;stroke-miterlimit:4;stroke-dasharray:none;stroke-opacity:1"
       transform="matrix(0,-1,1,0,0,0)" />
    <circle
       transform="matrix(0.8660254,-0.5,0.5,0.8660254,0,0)"
       style="opacity:1;fill:none;fill-opacity:1;stroke:#ff0000;stroke-width:0.70866144;stroke-miterlimit:4;stroke-dasharray:none;stroke-opacity:1"
       id="circle8834"
       cx="8.1443758"
       cy="719.72681"
       r="8.5041256" />
    <circle
       transform="matrix(0.8660254,0.5,-0.5,0.8660254,0,0)"
       r="8.8582678"
       cy="341.56345"
       cx="646.14545"
       id="circle8836"
       style="opacity:1;fill:none;fill-opacity:1;stroke:#ff0000;stroke-width:0.70866144;stroke-miterlimit:4;stroke-dasharray:none;stroke-opacity:1" />
    <circle
       transform="matrix(0,1,-1,0,0,0)"
       style="opacity:1;fill:none;fill-opacity:1;stroke:#ff0000;stroke-width:0.70866144;stroke-miterlimit:4;stroke-dasharray:none;stroke-opacity:1"
       id="circle8838"
       cx="638.1308"
       cy="-399.91382"
       r="8.8582678" />
    <circle
       transform="matrix(-0.8660254,0.5,-0.5,-0.8660254,0,0)"
       r="8.8582678"
       cy="-763.71155"
       cx="-8.0146761"
       id="circle8840"
       style="opacity:1;fill:none;fill-opacity:1;stroke:#ff0000;stroke-width:0.70866144;stroke-miterlimit:4;stroke-dasharray:none;stroke-opacity:1" />
    <circle
       transform="matrix(-0.8660254,-0.5,0.5,-0.8660254,0,0)"
       style="opacity:1;fill:none;fill-opacity:1;stroke:#ff0000;stroke-width:0.70866144;stroke-miterlimit:4;stroke-dasharray:none;stroke-opacity:1"
       id="circle8842"
       cx="-646.14545"
       cy="-386.03195"
       r="8.8582678" />
    <circle
       style="opacity:1;fill:none;fill-opacity:1;stroke:#0000ff;stroke-width:0.354;stroke-miterlimit:4;stroke-dasharray:none;stroke-opacity:1"
       id="circle8939"
       cx="-638.1308"
       cy="462.85712"
       r="37.096817"
       transform="matrix(0,-1,1,0,0,0)" />
    <circle
       style="opacity:1;fill:none;fill-opacity:1;stroke:#ff0000;stroke-width:0.70866144;stroke-miterlimit:4;stroke-dasharray:none;stroke-opacity:1"
       id="circle8943"
       cx="-638.13068"
       cy="462.85706"
       r="8.8582678"
       transform="matrix(0,-1,1,0,0,0)" />
    <circle
       style="opacity:1;fill:none;fill-opacity:1;stroke:#ff0000;stroke-width:0.70866144;stroke-miterlimit:4;stroke-dasharray:none;stroke-opacity:1"
       id="circle8945"
       cx="-638.1308"
       cy="440.62286"
       r="8.8582678"
       transform="matrix(0,-1,1,0,0,0)" />
    <circle
       r="8.8582678"
       cy="761.83179"
       cx="81.780609"
       id="circle8947"
       style="opacity:1;fill:none;fill-opacity:1;stroke:#ff0000;stroke-width:0.70866144;stroke-miterlimit:4;stroke-dasharray:none;stroke-opacity:1"
       transform="matrix(0.8660254,-0.5,0.5,0.8660254,0,0)" />
    <circle
       style="opacity:1;fill:none;fill-opacity:1;stroke:#ff0000;stroke-width:0.70866144;stroke-miterlimit:4;stroke-dasharray:none;stroke-opacity:1"
       id="circle8949"
       cx="719.91144"
       cy="298.97458"
       r="8.8582678"
       transform="matrix(0.8660254,0.5,-0.5,0.8660254,0,0)" />
    <circle
       r="8.8582678"
       cy="-485.09137"
       cx="638.1308"
       id="circle8951"
       style="opacity:1;fill:none;fill-opacity:1;stroke:#ff0000;stroke-width:0.70866144;stroke-miterlimit:4;stroke-dasharray:none;stroke-opacity:1"
       transform="matrix(0,1,-1,0,0,0)" />
    <circle
       style="opacity:1;fill:none;fill-opacity:1;stroke:#ff0000;stroke-width:0.70866144;stroke-miterlimit:4;stroke-dasharray:none;stroke-opacity:1"
       id="circle8953"
       cx="-81.780609"
       cy="-806.30029"
       r="8.8582678"
       transform="matrix(-0.8660254,0.5,-0.5,-0.8660254,0,0)" />
    <circle
       r="8.8582678"
       cy="-343.44321"
       cx="-719.91144"
       id="circle8955"
       style="opacity:1;fill:none;fill-opacity:1;stroke:#ff0000;stroke-width:0.70866144;stroke-miterlimit:4;stroke-dasharray:none;stroke-opacity:1"
       transform="matrix(-0.8660254,-0.5,0.5,-0.8660254,0,0)" />
    <circle
       r="37.096817"
       cy="548.03467"
       cx="-638.1308"
       id="circle8961"
       style="opacity:1;fill:none;fill-opacity:1;stroke:#0000ff;stroke-width:0.354;stroke-miterlimit:4;stroke-dasharray:none;stroke-opacity:1"
       transform="matrix(0,-1,1,0,0,0)" />
    <circle
       r="8.8582678"
       cy="548.03461"
       cx="-638.13068"
       id="circle8965"
       style="opacity:1;fill:none;fill-opacity:1;stroke:#ff0000;stroke-width:0.70866144;stroke-miterlimit:4;stroke-dasharray:none;stroke-opacity:1"
       transform="matrix(0,-1,1,0,0,0)" />
    <circle
       r="8.8582678"
       cy="525.80042"
       cx="-638.1308"
       id="circle8967"
       style="opacity:1;fill:none;fill-opacity:1;stroke:#ff0000;stroke-width:0.70866144;stroke-miterlimit:4;stroke-dasharray:none;stroke-opacity:1"
       transform="matrix(0,-1,1,0,0,0)" />
    <circle
       transform="matrix(0.8660254,-0.5,0.5,0.8660254,0,0)"
       style="opacity:1;fill:none;fill-opacity:1;stroke:#ff0000;stroke-width:0.70866144;stroke-miterlimit:4;stroke-dasharray:none;stroke-opacity:1"
       id="circle8969"
       cx="155.5466"
       cy="804.42053"
       r="8.8582678" />
    <circle
       transform="matrix(0.8660254,0.5,-0.5,0.8660254,0,0)"
       r="8.8582678"
       cy="256.38586"
       cx="793.67731"
       id="circle8971"
       style="opacity:1;fill:none;fill-opacity:1;stroke:#ff0000;stroke-width:0.70866144;stroke-miterlimit:4;stroke-dasharray:none;stroke-opacity:1" />
    <circle
       transform="matrix(0,1,-1,0,0,0)"
       style="opacity:1;fill:none;fill-opacity:1;stroke:#ff0000;stroke-width:0.70866144;stroke-miterlimit:4;stroke-dasharray:none;stroke-opacity:1"
       id="circle8973"
       cx="638.1308"
       cy="-570.26892"
       r="8.8582678" />
    <circle
       transform="matrix(-0.8660254,0.5,-0.5,-0.8660254,0,0)"
       r="8.8582678"
       cy="-848.88904"
       cx="-155.54648"
       id="circle8975"
       style="opacity:1;fill:none;fill-opacity:1;stroke:#ff0000;stroke-width:0.70866144;stroke-miterlimit:4;stroke-dasharray:none;stroke-opacity:1" />
    <circle
       transform="matrix(-0.8660254,-0.5,0.5,-0.8660254,0,0)"
       style="opacity:1;fill:none;fill-opacity:1;stroke:#ff0000;stroke-width:0.70866144;stroke-miterlimit:4;stroke-dasharray:none;stroke-opacity:1"
       id="circle8977"
       cx="-793.67731"
       cy="-300.85446"
       r="8.8582678" />
    <path
       inkscape:connector-curvature="0"
       style="opacity:1;fill:none;stroke:#ff0000"
       d="m 388.59768,600.85696 15.4134,0 0,-10.62992 -15.4134,0 -21.83622,0 -15.41339,0 0,10.62992 15.41339,0 z"
       id="path10354" />
    <path
       inkscape:connector-curvature="0"
       style="opacity:1;fill:none;stroke:#ff0000"
       d="m 473.77523,600.85696 15.41339,0 0,-10.62992 -15.41339,0 -21.83622,0 -15.41339,0 0,10.62992 15.41339,0 z"
       id="path10352" />
    <path
       inkscape:connector-curvature="0"
       style="opacity:1;fill:none;stroke:#ff0000"
       d="m 558.9528,600.85696 15.41339,0 0,-10.62992 -15.41339,0 -21.83622,0 -15.41339,0 0,10.62992 15.41339,0 z"
       id="path10350" />
    <path
       inkscape:connector-curvature="0"
       style="opacity:1;fill:none;stroke:#ff0000"
       d="m 595.93666,611.79869 -10.62992,0 0,15.41339 10.62992,0 z"
       id="path10348" />
    <path
       inkscape:connector-curvature="0"
       style="opacity:1;fill:none;stroke:#ff0000"
       d="m 595.93666,649.04948 -10.62992,0 0,15.41338 10.62992,0 z"
       id="path10346" />
    <path
       inkscape:connector-curvature="0"
       style="opacity:1;fill:none;stroke:#ff0000"
       d="m 537.11658,675.40457 -15.41339,0 0,10.6299 15.41339,0 21.83622,0 15.41339,0 0,-10.6299 -15.41339,0 z"
       id="path10344" />
    <path
       inkscape:connector-curvature="0"
       style="opacity:1;fill:none;stroke:#ff0000"
       d="m 451.93901,675.40457 -15.41339,0 0,10.6299 15.41339,0 21.83622,0 15.41339,0 0,-10.6299 -15.41339,0 z"
       id="path10342" />
    <path
       inkscape:connector-curvature="0"
       style="opacity:1;fill:none;stroke:#ff0000"
       d="m 366.76146,675.40457 -15.41339,0 0,10.6299 15.41339,0 21.83622,0 15.4134,0 0,-10.6299 -15.4134,0 z"
       id="path10340" />
    <path
       inkscape:connector-curvature="0"
       style="opacity:1;fill:none;stroke:#ff0000"
       d="m 340.40752,627.21208 0,-15.41339 -10.62992,0 0,15.41339 0,21.8374 0,15.41338 10.62992,0 0,-15.41338 z"
       id="path9921" />
    <rect
       style="opacity:1;fill:none;fill-opacity:1;stroke:#ff0000;stroke-width:0.354;stroke-miterlimit:4;stroke-dasharray:none;stroke-opacity:1"
       id="rect10013"
       width="139.62831"
       height="319.95389"
       x="-707.94501"
       y="302.88019"
       ry="21.259842"
       rx="21.259842"
       transform="matrix(0,-1,1,0,0,0)" />
    <path
       id="path10356"
       d="m 414.95339,627.21208 0,21.8374 10.62992,0 0,-21.8374 z"
       style="opacity:1;fill:none;stroke:#ff0000"
       inkscape:connector-curvature="0"
       sodipodi:nodetypes="ccccc" />
    <path
       sodipodi:nodetypes="ccccc"
       inkscape:connector-curvature="0"
       style="opacity:1;fill:none;stroke:#ff0000"
       d="m 500.13094,627.21208 0,21.8374 10.62992,0 0,-21.8374 z"
       id="path10452" />
    <path
       inkscape:connector-curvature="0"
       style="opacity:1;fill:none;stroke:#ff0000"
       d="m 582.98841,-102.03205 0,21.7578 0,15.4134 10.6299,0 0,21.8374 -10.6299,0 0,15.4134 0,21.57801 -10.9406,-0.01 0,-10.62991 -15.4134,0 0,10.62991 -21.8362,0 0,-10.62991 -15.4134,0 0,10.62991 -10.9406,0 0,-95.80751 10.9406,0 0,10.6299 15.4134,0 0,-10.6299 21.8362,0 0,10.6299 15.4134,0 0,-10.6299 z"
       id="path10042"
       sodipodi:nodetypes="ccccccccccccccccccccccccccc" />
    <path
       sodipodi:nodetypes="ccccccccccccccccccccccccccc"
       id="path15835"
       d="m 406.6402,-102.03205 0,21.7578 0,15.4134 10.62991,0 0,21.8374 -10.62991,0 0,15.4134 0,21.57801 -10.94056,-0.01 0,-10.62991 -15.41339,0 0,10.62991 -21.83622,0 0,-10.62991 -15.41338,0 0,10.62991 -10.94064,0 0,-95.80751 10.94064,0 0,10.6299 15.41338,0 0,-10.6299 21.83622,0 0,10.6299 15.41339,0 0,-10.6299 z"
       style="opacity:1;fill:none;stroke:#ff0000"
       inkscape:connector-curvature="0" />
    <path
       sodipodi:nodetypes="ccccccccccccccccccccccccccc"
       id="path15837"
       d="m 494.81431,-102.03205 0,21.7578 0,15.4134 10.6299,0 0,21.8374 -10.6299,0 0,15.4134 0,21.57801 -10.9406,-0.01 0,-10.62991 -15.4134,0 0,10.62991 -21.8362,0 0,-10.62991 -15.4134,0 0,10.62991 -10.9406,0 0,-95.80751 10.9406,0 0,10.6299 15.4134,0 0,-10.6299 21.8362,0 0,10.6299 15.4134,0 0,-10.6299 z"
       style="opacity:1;fill:none;stroke:#ff0000"
       inkscape:connector-curvature="0" />
    <path
       id="path9870"
       inkscape:label="part"
       style="fill:none;stroke:#ff0000"
       d="m 335.98426,466.8321 0,-10.6301 -15.4134,0 0,10.6301 -18.86806,0 0,-21.0402 -10.62992,0 0,-16.4764 10.62992,0 0,-20.7744 -10.62992,0 0,-16.4764 10.62992,0 0,-21.0401 18.86806,0 0,10.6299 15.4134,0 0,-10.6299 18.8681,0 0,21.0401 10.63,0 0,16.4764 -10.63,0 0,20.7744 10.63,0 0,16.4764 -10.63,0 0,21.0402 z"
       inkscape:connector-curvature="0"
       sodipodi:nodetypes="ccccccccccccccccccccccccccccc" />
    <path
       style="fill:none;stroke:#ff0000"
       d="m 354.85242,528.12295 10.62992,0 0,16.4764 -10.62992,0 0,21.0402 -18.86811,0 0,0 0,-10.63 -15.41339,0 0,10.63 -18.86811,0 0,-21.0402 -10.62992,0 0,-16.4764 10.62992,0 0.051,-2.50342 11.37694,1.3e-4 0,-15.76772 -11.37694,10e-5 -0.051,-2.50349 -10.62992,0 0,-16.4764 10.62992,0 0,-21.0401 18.86811,0 0,10.6299 15.41339,0 0,-10.6299 18.86811,0 0,21.0401 10.62992,0 0,16.4764 -10.62992,0 -0.0339,2.50359 -11.39404,-2e-4 0,15.76772 11.39404,-2.5e-4 z"
       id="path15662"
       inkscape:connector-curvature="0"
       sodipodi:nodetypes="cccccccccccccccccccccccccccccccccccccc" />
    <path
       id="path15605"
       inkscape:label="part"
       style="fill:none;stroke:#ff0000;stroke-width:1"
       d="m 319.85215,492.93265 0,10.62992 16.85093,0 0,-10.62992 z m 16.85093,49.6063 0,-10.62992 -16.85093,0 0,10.62992 z"
       inkscape:connector-curvature="0"
       sodipodi:nodetypes="cccccccccc" />
    <circle
       style="opacity:1;fill:none;fill-opacity:1;stroke:#ff0000;stroke-width:1;stroke-miterlimit:4;stroke-dasharray:none;stroke-opacity:1"
       id="path15733"
       cx="-517.73578"
       cy="328.27765"
       r="8.3582678"
       transform="matrix(0,-1,1,0,0,0)" />
    <path
       sodipodi:nodetypes="ccccccccccccccccccccccccccccccccccccccccccccccccccccccccccccc"
       inkscape:connector-curvature="0"
       d="m 528.42488,555.0097 0,10.6299 -16.47638,0 0,-10.6299 -20.77323,0 0,10.6299 -16.47637,0 0,-10.6299 -31.45158,0 0,10.6299 -16.47638,0 0,-10.6299 -20.77323,0 0,10.6299 -16.47637,0 0,-10.6299 -10.40906,0 0,-18.3366 -10.62992,0 0,-16.4764 10.62992,0 0,-18.3366 10.40906,0 0,-10.6299 16.47637,0 0,10.6299 20.77323,0 0,-10.6299 16.47638,0 0,10.6299 31.45158,0 0,-10.6299 16.47637,0 0,10.6299 20.77323,0 0,-10.6299 16.47638,0 0,10.6299 31.45157,0 0,-10.6299 16.47637,0 0,10.6299 20.77323,0 0,-10.6299 16.47638,0 0,10.6299 10.40906,0 0,18.3366 10.62992,0 0,16.4764 -10.62992,0 0,18.3366 -10.40906,0 0,10.6299 -16.47638,0 0,-10.6299 -20.77323,0 0,10.6299 -16.47637,0 0,-10.6299 z"
       style="fill:none;stroke:#ff0000"
       inkscape:label="part"
       id="path10015" />
    <path
       sodipodi:nodetypes="ccccccccccccccccccccccccccccccccccccccccccccccccccccccccccccccccccccc"
       inkscape:connector-curvature="0"
       d="m 560.40794,315.0133 0,10.6299 15.41339,0 0,-10.6299 21.83622,0 0,10.6299 15.41339,0 0,-10.6299 21.57047,0 0,21.5716 -10.62992,0 0,15.4134 10.62992,0 0,21.8374 -10.62992,0 0,15.4134 10.62992,0 0,21.5717 -21.57047,0 0,-10.63 -15.41339,0 0,10.63 -21.83622,0 0,-10.63 -15.41339,0 0,10.63 -32.51456,0 0,-10.63 -15.41339,0 0,10.63 -21.83622,0 0,-10.63 -15.41339,0 0,10.63 -32.51455,0 0,-10.63 -15.41339,0 0,10.63 -21.83622,0 0,-10.63 -15.41339,0 0,10.63 -21.57047,0 0,-21.5717 10.62992,0 0,-15.4134 -10.62992,0 0,-21.8374 10.62992,0 0,-15.4134 -10.62992,0 0,-21.5716 21.57047,0 0,10.6299 15.41339,0 0,-10.6299 21.83622,0 0,10.6299 15.41339,0 0,-10.6299 32.51455,0 0,10.6299 15.41339,0 0,-10.6299 21.83622,0 0,10.6299 15.41339,0 0,-10.6299 z"
       style="fill:none;stroke:#ff0000"
       inkscape:label="part"
       id="path10038" />
    <path
       id="path15843"
       inkscape:label="part"
       style="fill:none;stroke:#ff0000"
       d="m 528.42488,477.6003 0,10.6299 -16.47638,0 0,-10.6299 -20.77323,0 0,10.6299 -16.47637,0 0,-10.6299 -31.45158,0 0,10.6299 -16.47638,0 0,-10.6299 -20.77323,0 0,10.6299 -16.47637,0 0,-10.6299 -10.40906,0 0,-18.3366 -10.62992,0 0,-16.4764 10.62992,0 0,-18.3366 10.40906,0 0,-10.6299 16.47637,0 0,10.6299 20.77323,0 0,-10.6299 16.47638,0 0,10.6299 31.45158,0 0,-10.6299 16.47637,0 0,10.6299 20.77323,0 0,-10.6299 16.47638,0 0,10.6299 31.45157,0 0,-10.6299 16.47637,0 0,10.6299 20.77323,0 0,-10.6299 16.47638,0 0,10.6299 10.40906,0 0,18.3366 10.62992,0 0,16.4764 -10.62992,0 0,18.3366 -10.40906,0 0,10.6299 -16.47638,0 0,-10.6299 -20.77323,0 0,10.6299 -16.47637,0 0,-10.6299 z"
       inkscape:connector-curvature="0"
       sodipodi:nodetypes="ccccccccccccccccccccccccccccccccccccccccccccccccccccccccccccc" />
    <path
       id="path15583"
       inkscape:label="part"
       style="opacity:1;fill:none;stroke:#ff0000"
       d="m 314.03825,130.99217 -21.2595,0 0,-16.8307 21.2595,0 0,-16.389101 6.8563,0 0,10.629901 15.76772,0 0,-10.629901 17.75197,0 0,10.629901 15.76772,0 0,-10.629901 17.75196,0 0,10.629901 15.76773,0 0,-10.629901 17.75197,0 0,10.629901 15.76772,0 0,-10.629901 17.75196,0 0,10.629901 15.76772,0 0,-10.629901 17.75197,0 0,10.629901 15.76772,0 0,-10.629901 17.75196,0 0,10.629901 15.76772,0 0,-10.629901 17.75197,0 0,10.629901 15.76772,0 0,-10.629901 17.75196,0 0,10.629901 15.76772,0 0,-10.629901 6.8563,0 0,16.387801 10.62992,0 0,16.8307 -10.62992,0 0,16.3878 -6.8563,0 0,-10.6299 -15.76772,0 0,10.6299 -17.75196,0 0,-10.6299 -15.76772,0 0,10.6299 -17.75197,0 0,-10.6299 -15.76772,0 0,10.6299 -17.75196,0 0,-10.6299 -15.76772,0 0,10.6299 -17.75197,0 0,-10.6299 -15.76772,0 0,10.6299 -17.75196,0 0,-10.6299 -15.76772,0 0,10.6299 -17.75197,0 0,-10.6299 -15.76773,0 0,10.6299 -17.75196,0 0,-10.6299 -15.76772,0 0,10.6299 -17.75197,0 0,-10.6299 -15.76772,0 0,10.6299 -6.8563,0 z"
       inkscape:connector-curvature="0"
       sodipodi:nodetypes="ccccccccccccccccccccccccccccccccccccccccccccccccccccccccccccccccccccccccccccccccccccc" />
    <path
       style="opacity:1;fill:none;stroke:#ff0000"
       d="m 314.03825,150.37867 6.8563,0 0,10.6299 15.76772,0 0,-10.6299 17.75197,0 0,10.6299 15.76772,0 0,-10.6299 17.75196,0 0,10.6299 15.76773,0 0,-10.6299 17.75197,0 0,10.6299 15.76772,0 0,-10.6299 17.75196,0 0,10.6299 15.76772,0 0,-10.6299 17.75197,0 0,10.6299 15.76772,0 0,-10.6299 17.75196,0 0,10.6299 15.76772,0 0,-10.6299 17.75197,0 0,10.6299 15.76772,0 0,-10.6299 17.75196,0 0,10.6299 15.76772,0 0,-10.6299 6.8563,0 0,16.3878 10.62992,0 0,16.8307 -10.62992,0 0,16.3878 -6.8563,0 0,-10.6299 -15.76772,0 0,10.6299 -17.75196,0 0,-10.6299 -15.76772,0 0,10.6299 -17.75197,0 0,-10.6299 -15.76772,0 0,10.6299 -17.75196,0 0,-10.6299 -15.76772,0 0,10.6299 -17.75197,0 0,-10.6299 -15.76772,0 0,10.6299 -17.75196,0 0,-10.6299 -15.76772,0 0,10.6299 -17.75197,0 0,-10.6299 -15.76773,0 0,10.6299 -17.75196,0 0,-10.6299 -15.76772,0 0,10.6299 -17.75197,0 0,-10.6299 -15.76772,0 0,10.6299 -6.8563,0 0,-16.3889 -21.2595,0 0,-16.8307 21.2595,0 z"
       id="path15883"
       inkscape:connector-curvature="0"
       sodipodi:nodetypes="ccccccccccccccccccccccccccccccccccccccccccccccccccccccccccccccccccccccccccccccccccccc" />
    <path
       id="path16557"
       d="m 314.03825,293.92157 -21.2595,0 0,-16.8307 21.2595,0 0,-6.7315 6.3248,0 0,-11.3602 16.8307,0 0,11.3602 16.689,0 0,-11.3602 16.8307,0 0,11.3602 16.689,0 0,-11.3602 16.83071,0 0,11.3602 16.689,0 0,-11.3602 16.8307,0 0,11.3602 16.689,0 0,-11.3602 16.8307,0 0,11.3602 16.6889,0 0,-11.3602 16.8307,0 0,11.3602 16.689,0 0,-11.3602 16.8307,0 0,11.3602 16.689,0 0,-11.3602 16.8307,0 0,11.3602 16.689,0 0,-11.3602 16.8307,0 0,11.3602 6.3248,0 0,6.1534 10.6299,0 0,17.987 -10.6299,0 0,6.1534 -6.3248,0 0,11.3602 -16.8307,0 0,-11.3602 -16.689,0 0,11.3602 -16.8307,0 0,-11.3602 -16.689,0 0,11.3602 -16.8307,0 0,-11.3602 -16.689,0 0,11.3602 -16.8307,0 0,-11.3602 -16.6889,0 0,11.3602 -16.8307,0 0,-11.3602 -16.689,0 0,11.3602 -16.8307,0 0,-11.3602 -16.689,0 0,11.3602 -16.83071,0 0,-11.3602 -16.689,0 0,11.3602 -16.8307,0 0,-11.3602 -16.689,0 0,11.3602 -16.8307,0 0,-11.3602 -6.3248,0 z"
       style="opacity:1;fill:none;stroke:#ff0000"
       inkscape:connector-curvature="0"
       sodipodi:nodetypes="ccccccccccccccccccccccccccccccccccccccccccccccccccccccccccccccccccccccccccccccccccccc" />
    <path
       id="path16559"
       d="m 314.03825,237.90737 -21.2595,0 0,-16.8307 21.2595,0 0,-6.7315 6.3248,0 0,-11.3602 16.8307,0 0,11.3602 16.689,0 0,-11.3602 16.8307,0 0,11.3602 16.689,0 0,-11.3602 16.83071,0 0,11.3602 16.689,0 0,-11.3602 16.8307,0 0,11.3602 16.689,0 0,-11.3602 16.8307,0 0,11.3602 16.6889,0 0,-11.3602 16.8307,0 0,11.3602 16.689,0 0,-11.3602 16.8307,0 0,11.3602 16.689,0 0,-11.3602 16.8307,0 0,11.3602 16.689,0 0,-11.3602 16.8307,0 0,11.3602 6.3248,0 0,6.1534 10.6299,0 0,17.987 -10.6299,0 0,6.1534 -6.3248,0 0,11.3602 -16.8307,0 0,-11.3602 -16.689,0 0,11.3602 -16.8307,0 0,-11.3602 -16.689,0 0,11.3602 -16.8307,0 0,-11.3602 -16.689,0 0,11.3602 -16.8307,0 0,-11.3602 -16.6889,0 0,11.3602 -16.8307,0 0,-11.3602 -16.689,0 0,11.3602 -16.8307,0 0,-11.3602 -16.689,0 0,11.3602 -16.83071,0 0,-11.3602 -16.689,0 0,11.3602 -16.8307,0 0,-11.3602 -16.689,0 0,11.3602 -16.8307,0 0,-11.3602 -6.3248,0 z"
       style="opacity:1;fill:none;stroke:#ff0000"
       inkscape:connector-curvature="0"
       sodipodi:nodetypes="ccccccccccccccccccccccccccccccccccccccccccccccccccccccccccccccccccccccccccccccccccccc" />
    <path
       id="path16578"
       style="opacity:1;fill:none;stroke:#ff0000;stroke-width:1"
       d="m 355.29561,316.41837 0,16.9214 -11.3602,0 0,15.7678 11.3602,0 0,16.9172 -18.6232,0 0,-11.3602 -15.7678,0 0,11.3602 -18.6232,0 0,-16.9172 11.3602,0 0,-15.7678 -11.3602,0 0,-16.9214 18.6232,0 0,11.3602 15.7678,0 0,-11.3602 z"
       inkscape:connector-curvature="0"
       sodipodi:nodetypes="ccccccccccccccccccccc" />
    <circle
       r="7.7952757"
       cy="341.22159"
       cx="328.78851"
       id="circle16669"
       style="opacity:1;fill:none;fill-opacity:1;stroke:#ff0000;stroke-width:2.12598419;stroke-miterlimit:4;stroke-dasharray:none;stroke-opacity:1" />
    <path
       style="opacity:1;fill:none;stroke:#ff0000"
       d="m 578.46599,84.142369 -15.0933,0 0,10.63 -22.8868,0 0,-10.63 -15.1695,0 0,-10.40897 -10.6299,0 0,-16.4764 10.6299,0 0,-20.7732 -10.6299,0 0,-16.4764 10.6299,0 0,-10.4090501 z"
       id="path4341"
       inkscape:connector-curvature="0"
       sodipodi:nodetypes="cccccccccccccccc" />
    <path
       style="opacity:1;fill:none;stroke:#ff0000"
       d="m 601.71528,60.31525 0,-15.0933 10.62991,0 0,-22.8868 -10.62991,0 0,-15.1695 -10.40905,0 0,-10.6298302 -16.4764,0 0,10.6298302 -20.7732,0 0,-10.6298302 -16.4764,0 0,10.6298302 -10.40897,0 z"
       id="path4337"
       inkscape:connector-curvature="0"
       sodipodi:nodetypes="cccccccccccccccc" />
    <path
       sodipodi:nodetypes="cccccccccccccccc"
       inkscape:connector-curvature="0"
       id="path4351"
       d="m 377.14859,84.142369 -15.0933,0 0,10.63 -22.8868,0 0,-10.63 -15.1695,0 0,-10.40897 -10.6299,0 0,-16.4764 10.6299,0 0,-20.7732 -10.6299,0 0,-16.4764 10.6299,0 0,-10.4090501 z"
       style="opacity:1;fill:none;stroke:#ff0000" />
    <path
       sodipodi:nodetypes="cccccccccccccccc"
       inkscape:connector-curvature="0"
       id="path4353"
       d="m 400.39788,60.31525 0,-15.0933 10.62991,0 0,-22.8868 -10.62991,0 0,-15.1695 -10.40905,0 0,-10.6298302 -16.4764,0 0,10.6298302 -20.7732,0 0,-10.6298302 -16.4764,0 0,10.6298302 -10.40897,0 z"
       style="opacity:1;fill:none;stroke:#ff0000" />
    <path
       sodipodi:nodetypes="cccccccccccccccc"
       inkscape:connector-curvature="0"
       id="path4357"
       d="m 477.80729,84.142369 -15.0933,0 0,10.63 -22.8868,0 0,-10.63 -15.1695,0 0,-10.40897 -10.6299,0 0,-16.4764 10.6299,0 0,-20.7732 -10.6299,0 0,-16.4764 10.6299,0 0,-10.4090501 z"
       style="opacity:1;fill:none;stroke:#ff0000" />
    <path
       sodipodi:nodetypes="cccccccccccccccc"
       inkscape:connector-curvature="0"
       id="path4359"
       d="m 501.05658,60.31525 0,-15.0933 10.62991,0 0,-22.8868 -10.62991,0 0,-15.1695 -10.40905,0 0,-10.6298302 -16.4764,0 0,10.6298302 -20.7732,0 0,-10.6298302 -16.4764,0 0,10.6298302 -10.40897,0 z"
       style="opacity:1;fill:none;stroke:#ff0000" />
  </g>
</svg>
